inDegrees=no
num_controls=7
num_derivatives=13
num_iterations=188
num_multipliers=7
num_parameters=0
num_slacks=7
num_states=26
objective=0.493953
objective_accelerations=0.010966
objective_balance=0.003991
objective_effort=0.016924
objective_height=0.360810
objective_ligament=0.101262
solver_duration=2287.351766
status=Solve_Succeeded
success=true
DataType=double
version=3
OpenSimVersion=4.5
endheader
time	/jointset/ground_pelvis/pelvis_tilt/value	/jointset/ground_pelvis/pelvis_tx/value	/jointset/ground_pelvis/pelvis_ty/value	/jointset/hip_l/hip_flexion_l/value	/jointset/hip_l/hip_adduction_l/value	/jointset/hip_l/hip_rotation_l/value	/jointset/back/lumbar_extension/value	/jointset/patellofemoral_l/patellar_flexion_l/value	/jointset/knee_l/knee_flexion_l/value	/jointset/knee_l/knee_adduction_l/value	/jointset/knee_l/knee_rotation_l/value	/jointset/ankle_l/ankle_angle_l/value	/jointset/subtalar_l/subtalar_angle_l/value	/jointset/ground_pelvis/pelvis_tilt/speed	/jointset/ground_pelvis/pelvis_tx/speed	/jointset/ground_pelvis/pelvis_ty/speed	/jointset/hip_l/hip_flexion_l/speed	/jointset/hip_l/hip_adduction_l/speed	/jointset/hip_l/hip_rotation_l/speed	/jointset/back/lumbar_extension/speed	/jointset/patellofemoral_l/patellar_flexion_l/speed	/jointset/knee_l/knee_flexion_l/speed	/jointset/knee_l/knee_adduction_l/speed	/jointset/knee_l/knee_rotation_l/speed	/jointset/ankle_l/ankle_angle_l/speed	/jointset/subtalar_l/subtalar_angle_l/speed	/forceset/tau_hip_flexion_l	/forceset/tau_hip_adduction_l	/forceset/tau_hip_rotation_l	/forceset/tau_knee_flexion_l	/forceset/tau_ankle_angle_l	/forceset/tau_subtalar_angle_l	/forceset/tau_lumbar_extension	lambda_cid13_p0	lambda_cid13_p1	lambda_cid13_p2	lambda_cid13_p3	lambda_cid13_p4	lambda_cid13_p5	lambda_cid14_p0	/jointset/ground_pelvis/pelvis_tilt/accel	/jointset/ground_pelvis/pelvis_tx/accel	/jointset/ground_pelvis/pelvis_ty/accel	/jointset/hip_l/hip_flexion_l/accel	/jointset/hip_l/hip_adduction_l/accel	/jointset/hip_l/hip_rotation_l/accel	/jointset/back/lumbar_extension/accel	/jointset/patellofemoral_l/patellar_flexion_l/accel	/jointset/knee_l/knee_flexion_l/accel	/jointset/knee_l/knee_adduction_l/accel	/jointset/knee_l/knee_rotation_l/accel	/jointset/ankle_l/ankle_angle_l/accel	/jointset/subtalar_l/subtalar_angle_l/accel	gamma_cid13_p0	gamma_cid13_p1	gamma_cid13_p2	gamma_cid13_p3	gamma_cid13_p4	gamma_cid13_p5	gamma_cid14_p0
0.5	-0.03912124064895173	-0.03094187830200446	0.8905169607030028	0.5555870448164262	-0.2653496469946198	-0.2626564437263896	-0.7644439874767526	0.4455514036169825	0.4455514036169786	-0.05061894651300343	-0.1741520010662074	-0.01683234882188188	0.02555557280944655	-0.06709446927957874	-0.1506081690803924	-0.0954692631251399	0.5627429764997981	-0.0586789263842993	0.1558631986075123	-0.850362473488439	0.4800923128654609	0.4800923128654608	0.007931381179845664	0.0009897782379010534	-0.0115954157021047	-0.06678699227166798	-0.2306163431723245	0.03332941983193945	-0.007599574743991463	-0.1168280798556569	0.1002214362825607	0.04432583160515197	0.3020425420997055	-13.02192948854956	-18.53675921315964	4.289817354002015	-1.640884920337401	-712.9815323622416	-78.88749930834472	-23.59094393048502	0.04720003923738852	0.3966362920913784	0.08174660492484118	-0.9673983913481525	-0.06679500384028395	-0.114875612531814	1.484432164987993	-0.6777254927096217	-0.6777254927096293	-0.4198491419627859	-0.006376125857150149	0.1548197518329416	-0.00915031688943331	-6.872184916370052e-09	1.624718944808132e-08	3.194889533439466e-08	-5.916822312482427e-10	8.769715729770659e-09	2.491392871132156e-09	-4.170323109051238e-09
0.51	-0.03978985767189598	-0.0324280648467442	0.889566517411814	0.5611656136798953	-0.2659397551407779	-0.2611035556902366	-0.7728722917797138	0.4503177788720795	0.4503177788720789	-0.05056078112233297	-0.1741423216989397	-0.01694073174208586	0.02488720255048566	-0.06661656177022222	-0.1466219495611406	-0.09459989241319575	0.5528988895568235	-0.05933304953006254	0.1546937853104479	-0.8352020673869373	0.4731074432515801	0.4731074432515816	0.003704970036596757	0.0009440101811343325	-0.0100964476638947	-0.06688263038759432	-0.235499811850321	0.03437457950183596	-0.007623709157006274	-0.1156456700879535	0.0987923096064002	0.04521055919465935	0.3068487829218539	-13.54399740554527	-18.81629756622031	4.319204688595794	-1.489975239090206	-714.6306121265872	-78.92370950257792	-23.55856994202705	0.04994007418860673	0.4006932143231818	0.09245963786927064	-1.003701730478041	-0.06327886311949468	-0.1210711215767167	1.546292790269004	-0.720161096612038	-0.7201610966120968	-0.4235410109860561	-0.003984543646470337	0.1451433494500791	-0.009112774867812756	-7.242924439948177e-09	1.93450670194952e-08	3.268640183056208e-08	-6.861733460518009e-10	1.077893017287115e-08	2.484411907001999e-09	-4.129721909456446e-09
0.52	-0.0404533248262657	-0.03387417350979519	0.8886253532944525	0.5666435840969936	-0.2665361160970285	-0.2595629811737111	-0.7811461024301526	0.4550120467508608	0.4550120467508632	-0.05054478062519113	-0.1741331614918522	-0.0170345833779807	0.0242180074671808	-0.06606449556471301	-0.1425925927426454	-0.09361342835964788	0.542623287225614	-0.05992948840282042	0.1534004946820649	-0.8194637429839254	0.4656708376023106	0.4656708376023097	-0.0005015975258566498	0.0008859462018212897	-0.008689158840282638	-0.06695195714046383	-0.2403832805283175	0.03541973917173248	-0.007647843570021355	-0.1144632603202501	0.09736318293023974	0.04609528678416658	0.3116550237440022	-14.07028409781585	-19.0958529567379	4.349457995527659	-1.350904309329289	-716.3497506443355	-78.97159516017301	-23.52399768472323	0.06203177846792726	0.4052637519400463	0.1051652732455796	-1.053701468994882	-0.05525814923920991	-0.1396510787955511	1.600015825290019	-0.7680726997873457	-0.7680726997873422	-0.4158804258036849	-0.008835310380895682	0.1364839089133583	-0.003888044278066466	-7.479599508401433e-09	2.227018609650495e-08	3.290097023667834e-08	-9.260921715176163e-10	1.307373740973725e-08	2.402818678269032e-09	-4.043584570011739e-09
0.53	-0.04111094877114254	-0.0352798127459891	0.8876946203735424	0.5720167890603786	-0.2671381569754906	-0.2580360201209664	-0.7892597671895892	0.4596297648178296	0.4596297648178281	-0.0505707015079113	-0.1741247156789553	-0.01711484312332117	0.02354823959415646	-0.06545137158431395	-0.1385317944894554	-0.09251496829398956	0.5319557533987875	-0.06047057795825127	0.1519600954622058	-0.8031870407171662	0.4578007347751036	0.4578007347751053	-0.004676746418360196	0.0007896037963222139	-0.007382151350269392	-0.06700007338839635	-0.2449011601367496	0.03633436490905381	-0.007668184015582605	-0.1135229967628671	0.0961540398548123	0.04690125578595999	0.3161166802508616	-14.5202521735241	-19.35250733282947	4.373708328923608	-1.208374076752938	-717.8854676912482	-79.00492211364823	-23.48736571960218	0.06228857125850738	0.407006652592018	0.1149173583028096	-1.082574295178339	-0.05232503336723165	-0.1509801770367681	1.653822655305885	-0.8072844269730357	-0.8072844269727909	-0.4174508881729665	-0.01207045069693512	0.1249049232689981	-0.005049360713752074	-7.527805617421103e-09	2.486734315866316e-08	3.258033932381403e-08	-1.168010756472224e-09	1.513296892189947e-08	2.287520927096096e-09	-3.860852081444789e-09
0.54	-0.04176217430352866	-0.0366447402415344	0.8867754182503043	0.5772814596943648	-0.2677453668844413	-0.2565244122271115	-0.7972081998807707	0.4641666207859693	0.4641666207859638	-0.05063819763299651	-0.1741176406391257	-0.01718261364291674	0.0228780353695202	-0.0647848130666087	-0.1344502446129236	-0.09130726882525614	0.5209164213458887	-0.06096329450057063	0.1503298629041196	-0.7864173293329269	0.4494984178364661	0.4494984178364685	-0.008816645998839162	0.0006117915883222527	-0.00619131369131163	-0.06703922746284514	-0.2494190397451818	0.0372489906463751	-0.007688524461144133	-0.1125827332054854	0.09494489677938484	0.04770722478775145	0.3205783367577208	-14.97504536492842	-19.60923831445446	4.39902345915571	-1.075876470087956	-719.4999325025493	-79.05091932738863	-23.44883975153326	0.07271868592916866	0.4094140766083819	0.1270131538606016	-1.12806111420935	-0.04558354661691324	-0.1776177464409638	1.698617648785996	-0.8545155220738555	-0.8545155220738514	-0.4088305633992072	-0.02512927088107259	0.1132499427019492	-0.002095609581321337	-7.36749287770574e-09	2.710164862992179e-08	3.166757299420525e-08	-1.412141841286773e-09	1.693156346204889e-08	2.134933065989578e-09	-3.57124836406174e-09
